# xmcd
#
# Track frame offsets:
#  150
#  10356
#  23792
#  44549
#  61515
#  81637
#  98201
#  118418
#  136061
#  151322
#  172848
#  187749
#
# Disc length: 2727 seconds
#
# Revision: 1
# Processed by: cddbd v1.5.1PL0 Copyright (c) Steve Scherf et al.
# Submitted via: Collectorz.com_Music_Collector 6.9
#
DISCID=920aa50c
DTITLE=Chris Field - Come Out And Play
DYEAR=2003
DGENRE=Blues -  Blues Acoustic
TTITLE0=Song In My Head
TTITLE1=Groove's In A
TTITLE2=So The Story Goes
TTITLE3=Darkest Hour
TTITLE4=That Other Place
TTITLE5=Pounce
TTITLE6=Relentless
TTITLE7=Keep My Blues
TTITLE8=Come Out And Play
TTITLE9=Walk In The Rain
TTITLE10=Fly By Fire
TTITLE11=Judgement Day
EXTD=
EXTT0=
EXTT1=
EXTT2=
EXTT3=
EXTT4=
EXTT5=
EXTT6=
EXTT7=
EXTT8=
EXTT9=
EXTT10=
EXTT11=
PLAYORDER=
